<?xml version="1.0" standalone="no"?>
<!DOCTYPE svg PUBLIC "-//W3C//DTD SVG 20010904//EN"
 "http://www.w3.org/TR/2001/REC-SVG-20010904/DTD/svg10.dtd">
<svg version="1.0" xmlns="http://www.w3.org/2000/svg"
 width="1300.000000pt" height="1300.000000pt" viewBox="0 0 1300.000000 1300.000000"
 preserveAspectRatio="xMidYMid meet">
<metadata>
Created by potrace 1.14, written by Peter Selinger 2001-2017
</metadata>
<g transform="translate(0.000000,1300.000000) scale(0.100000,-0.100000)"
fill="#000000" stroke="none">
<path d="M355 12993 c-189 -25 -316 -144 -343 -323 -4 -25 -7 -2765 -7 -6090
0 -5808 1 -6047 18 -6104 45 -144 157 -242 307 -267 54 -9 61 -10 98 -8 9 0
2697 0 5972 0 3275 0 5978 1 6006 3 134 9 203 37 278 112 37 37 100 134 95
146 0 2 2 19 5 38 10 56 17 114 17 128 -1 6 -1 20 -2 30 0 9 0 2690 0 5957 0
3267 -2 5965 -4 5995 -7 95 -12 116 -40 173 -47 95 -153 180 -255 203 -34 8
-12086 15 -12145 7z"/>
</g>
</svg>
